<svg xmlns="http://www.w3.org/2000/svg" viewBox="0 0 24 24" width="100%" height="100%">
  <defs>
    <linearGradient id="syncGradient" x1="0%" y1="0%" x2="100%" y2="100%">
      <stop offset="0%" stop-color="#0072ff" />
      <stop offset="100%" stop-color="#00c6ff" />
    </linearGradient>
  </defs>
  <path 
    fill="url(#syncGradient)" 
    d="M19,8l-1.41,1.41L19.17,11H7.83l1.58-1.59L8,8l-4,4l4,4l1.41-1.41L7.83,13h11.34l-1.58,1.59L19,16l4-4L19,8z"
  />
  <path 
    fill="url(#syncGradient)" 
    opacity="0.8"
    d="M5,16l1.41-1.41L4.83,13h11.34l-1.58,1.59L16,16l4-4l-4-4l-1.41,1.41L16.17,11H4.83l1.58-1.59L5,8l-4,4L5,16z"
  />
</svg>
